<svg xmlns="http://www.w3.org/2000/svg" width="1672" height="941" viewBox="0 0 1672 941">
  <defs>
    <filter id="paperNoise" x="-10%" y="-10%" width="120%" height="120%">
      <feTurbulence type="fractalNoise" baseFrequency="0.018" numOctaves="3" seed="9" />
      <feColorMatrix type="saturate" values="0" />
      <feComponentTransfer>
        <feFuncA type="table" tableValues="0 0.08" />
      </feComponentTransfer>
      <feBlend mode="multiply" in2="SourceGraphic" />
    </filter>
    <filter id="softShadow" x="-20%" y="-20%" width="140%" height="140%">
      <feDropShadow dx="0" dy="10" stdDeviation="10" flood-color="#263545" flood-opacity="0.16" />
    </filter>
    <pattern id="grid" width="32" height="32" patternUnits="userSpaceOnUse">
      <path d="M 32 0 L 0 0 0 32" fill="none" stroke="#d8ccb4" stroke-width="1" opacity="0.22" />
    </pattern>
    <style>
      .paper { fill: #fbf5e5; }
      .grid { fill: url(#grid); opacity: 0.85; }
      .ink { fill: #172033; }
      .muted { fill: #536151; }
      .orange { fill: #f05a28; }
      .green { fill: #1f6f50; }
      .blue { fill: #5db6d7; }
      .yellow { fill: #ffd86a; }
      .card { fill: #fffaf0; stroke: #263545; stroke-width: 4; }
      .photo { fill: #edf4f4; stroke: #263545; stroke-width: 4; }
      .redline { fill: none; stroke: #e7412b; stroke-width: 8; stroke-linecap: round; stroke-linejoin: round; }
      .sketch { fill: none; stroke: #263545; stroke-width: 5; stroke-linecap: round; stroke-linejoin: round; }
      .thin { fill: none; stroke: #263545; stroke-width: 3; stroke-linecap: round; stroke-linejoin: round; }
      .soft { fill: none; stroke: #8a7a5c; stroke-width: 3; stroke-linecap: round; stroke-linejoin: round; opacity: 0.56; }
      .title { font: 900 78px "PingFang SC", "Microsoft YaHei", sans-serif; letter-spacing: 0; }
      .subtitle { font: 800 32px "PingFang SC", "Microsoft YaHei", sans-serif; letter-spacing: 0; }
      .label { font: 900 28px "PingFang SC", "Microsoft YaHei", sans-serif; letter-spacing: 0; }
      .small { font: 800 22px "PingFang SC", "Microsoft YaHei", sans-serif; letter-spacing: 0; }
      .tiny { font: 800 18px "PingFang SC", "Microsoft YaHei", sans-serif; letter-spacing: 0; }
    </style>
  </defs>

  <rect class="paper" width="1672" height="941" />
  <rect class="grid" width="1672" height="941" />

  <path d="M 88 120 C 230 92, 366 92, 520 111 S 830 105, 1018 88 S 1340 76, 1572 112" fill="none" stroke="#f4a261" stroke-width="13" stroke-linecap="round" opacity="0.42" />
  <text x="92" y="104" class="title orange">找茬儿：</text>
  <text x="405" y="104" class="title ink">AI 画错了哪里？</text>
  <path d="M 93 140 C 300 165, 575 152, 782 151 S 1210 170, 1548 142" class="redline" opacity="0.85" />
  <text x="104" y="190" class="subtitle muted">先圈出来，再告诉 AI：哪里不对，想改成什么。</text>

  <g transform="translate(78 236)">
    <path d="M 0 0 L 120 22 L 106 122 L -6 106 Z" fill="#fff1a6" stroke="#263545" stroke-width="4" filter="url(#softShadow)" />
    <text x="23" y="53" class="label ink">找一找</text>
    <path d="M 48 72 L 62 93 L 96 54" class="redline" />
  </g>
  <g transform="translate(78 410)">
    <path d="M 0 12 L 132 0 L 140 116 L 9 126 Z" fill="#d9efd1" stroke="#263545" stroke-width="4" filter="url(#softShadow)" />
    <text x="24" y="58" class="label ink">说清楚</text>
    <path d="M 40 80 C 60 95, 90 96, 112 72" class="thin" />
    <circle cx="36" cy="72" r="5" fill="#263545" />
    <circle cx="116" cy="66" r="5" fill="#263545" />
  </g>
  <g transform="translate(78 590)">
    <path d="M 4 8 L 128 0 L 136 118 L 0 126 Z" fill="#cdeeff" stroke="#263545" stroke-width="4" filter="url(#softShadow)" />
    <text x="25" y="55" class="label ink">看新版</text>
    <path d="M 34 83 L 62 60 L 78 78 L 108 46" class="redline" />
  </g>

  <g transform="translate(256 214)">
    <text x="12" y="30" class="label ink">AI 第一版：请你当导演</text>

    <g transform="translate(0 58)" filter="url(#softShadow)">
      <rect class="card" x="0" y="0" width="405" height="560" rx="18" />
      <path d="M 18 24 C 122 8, 276 14, 386 20" class="soft" />
      <text x="28" y="55" class="label green">动物医生</text>
      <text x="246" y="55" class="small muted">鱼在桌上？</text>
      <rect class="photo" x="28" y="84" width="349" height="410" rx="12" />
      <rect x="28" y="84" width="349" height="410" rx="12" fill="#dbe9ee" opacity="0.85" />

      <path d="M 68 376 L 332 376 L 350 430 L 50 430 Z" fill="#7ba0a8" stroke="#263545" stroke-width="5" />
      <rect x="82" y="310" width="210" height="72" rx="12" fill="#eef8f5" stroke="#263545" stroke-width="4" />
      <path d="M 116 324 C 150 286, 218 286, 252 324 C 218 362, 150 362, 116 324 Z" fill="#f4c85f" stroke="#263545" stroke-width="5" />
      <circle cx="230" cy="319" r="7" fill="#263545" />
      <path d="M 115 324 L 82 306 L 86 342 Z" fill="#f4c85f" stroke="#263545" stroke-width="5" />
      <path d="M 164 294 C 162 278, 174 264, 190 265" class="thin" />
      <path d="M 168 354 C 162 370, 172 382, 188 384" class="thin" />

      <g transform="translate(242 130)">
        <circle cx="46" cy="46" r="38" fill="#f7c6a1" stroke="#263545" stroke-width="5" />
        <path d="M 16 35 C 38 6, 76 14, 88 38" fill="#3b2b20" stroke="#263545" stroke-width="5" />
        <rect x="15" y="86" width="65" height="124" rx="12" fill="#fff" stroke="#263545" stroke-width="5" />
        <path d="M 42 86 L 42 210" class="thin" />
        <path d="M 18 128 L -18 170" class="sketch" />
        <path d="M 77 130 L 118 172" class="sketch" />
      </g>
      <path d="M 95 244 L 142 208 L 190 244 L 164 280 L 118 280 Z" fill="#c9e8b9" stroke="#263545" stroke-width="4" opacity="0.55" />
      <path d="M 52 138 L 92 138 M 72 118 L 72 158" class="sketch" stroke="#5db6d7" />
      <path d="M 286 350 C 326 348, 350 370, 350 404" class="soft" />
      <ellipse cx="160" cy="326" rx="98" ry="66" class="redline" />
      <text x="33" y="536" class="tiny muted">你想让 AI 怎么改？</text>
    </g>

    <g transform="translate(438 58)" filter="url(#softShadow)">
      <rect class="card" x="0" y="0" width="405" height="560" rx="18" />
      <path d="M 18 24 C 138 9, 286 11, 388 21" class="soft" />
      <text x="28" y="55" class="label green">太空建筑师</text>
      <text x="230" y="55" class="small muted">怎么进去？</text>
      <rect class="photo" x="28" y="84" width="349" height="410" rx="12" />
      <rect x="28" y="84" width="349" height="410" rx="12" fill="#18233a" opacity="0.92" />
      <circle cx="310" cy="150" r="32" fill="#f9e7ad" />
      <circle cx="84" cy="132" r="4" fill="#fff" />
      <circle cx="145" cy="176" r="3" fill="#fff" />
      <circle cx="248" cy="112" r="4" fill="#fff" />
      <circle cx="340" cy="238" r="3" fill="#fff" />
      <path d="M 30 398 C 108 360, 238 362, 376 406 L 376 494 L 28 494 Z" fill="#b8b1a4" stroke="#263545" stroke-width="4" />

      <g transform="translate(86 208)">
        <path d="M 10 154 L 164 50 L 318 154 Z" fill="#fed16c" stroke="#263545" stroke-width="5" />
        <rect x="38" y="150" width="252" height="142" rx="10" fill="#f8f0dc" stroke="#263545" stroke-width="5" />
        <rect x="70" y="178" width="58" height="58" rx="6" fill="#73c3e6" stroke="#263545" stroke-width="4" />
        <rect x="194" y="178" width="58" height="58" rx="6" fill="#73c3e6" stroke="#263545" stroke-width="4" />
        <path d="M 70 207 L 128 207 M 99 178 L 99 236 M 194 207 L 252 207 M 223 178 L 223 236" class="thin" />
        <path d="M 114 150 L 114 104 L 148 104 L 148 127" fill="#f8f0dc" stroke="#263545" stroke-width="4" />
      </g>
      <path d="M 255 356 C 330 314, 362 354, 326 392" class="redline" />
      <path d="M 282 420 C 234 460, 152 452, 94 420" class="redline" />
      <text x="42" y="536" class="tiny muted">你想让 AI 怎么改？</text>
    </g>

    <g transform="translate(876 58)" filter="url(#softShadow)">
      <rect class="card" x="0" y="0" width="405" height="560" rx="18" />
      <path d="M 18 24 C 120 11, 278 12, 386 20" class="soft" />
      <text x="28" y="55" class="label green">甜品师</text>
      <text x="202" y="55" class="small muted">冰淇淋进烤箱？</text>
      <rect class="photo" x="28" y="84" width="349" height="410" rx="12" />
      <rect x="28" y="84" width="349" height="410" rx="12" fill="#fff2d4" opacity="0.92" />
      <rect x="54" y="326" width="296" height="82" rx="10" fill="#b88a66" stroke="#263545" stroke-width="5" />
      <rect x="78" y="168" width="196" height="166" rx="16" fill="#dde4e8" stroke="#263545" stroke-width="5" />
      <rect x="103" y="205" width="146" height="86" rx="8" fill="#263545" stroke="#263545" stroke-width="4" />
      <path d="M 112 292 C 136 316, 214 318, 242 292" fill="#f05a28" opacity="0.45" />
      <circle cx="122" cy="249" r="21" fill="#f0b2cf" stroke="#263545" stroke-width="4" />
      <circle cx="160" cy="244" r="22" fill="#c7e7f2" stroke="#263545" stroke-width="4" />
      <circle cx="199" cy="250" r="22" fill="#f8d66a" stroke="#263545" stroke-width="4" />
      <path d="M 127 270 L 194 270 L 162 326 Z" fill="#d79a54" stroke="#263545" stroke-width="4" />
      <path d="M 286 150 L 336 150 L 336 310 L 286 310 Z" fill="#f8f0dc" stroke="#263545" stroke-width="4" />
      <path d="M 300 176 L 322 176 M 300 212 L 322 212 M 300 248 L 322 248" class="thin" />
      <path d="M 110 226 C 70 200, 70 160, 116 140" class="soft" />
      <path d="M 226 234 C 258 208, 254 170, 218 152" class="soft" />
      <ellipse cx="161" cy="258" rx="100" ry="86" class="redline" />
      <text x="34" y="536" class="tiny muted">你想让 AI 怎么改？</text>
    </g>
  </g>

  <g transform="translate(270 846)" filter="url(#softShadow)">
    <path d="M 0 0 C 300 -20, 660 -14, 1232 0 L 1218 72 C 800 92, 402 86, 12 72 Z" fill="#fff0a8" stroke="#263545" stroke-width="4" />
    <text x="34" y="47" class="label ink">改图句式</text>
    <text x="224" y="47" class="small muted">把 ___ 改成 ___</text>
    <text x="524" y="47" class="small muted">加上 ___</text>
    <text x="732" y="47" class="small muted">让 ___ 更合理</text>
    <text x="1016" y="47" class="small green">发现一处，就改一处</text>
  </g>

  <path d="M 1516 156 L 1534 194 L 1575 199 L 1544 226 L 1553 268 L 1516 246 L 1480 268 L 1488 226 L 1458 199 L 1499 194 Z" fill="#ffd86a" stroke="#263545" stroke-width="4" opacity="0.8" />
  <path d="M 1457 814 C 1506 784, 1564 790, 1600 836" class="soft" />
  <path d="M 1452 852 C 1518 884, 1568 876, 1610 832" class="soft" />
</svg>
